Motion_kv04_l
version=1
nRows=13
nColumns=43
inDegrees=yes
endheader
time	pelvis_tilt	pelvis_list	pelvis_rotation	pelvis_tx	pelvis_ty	pelvis_tz	hip_flexion_r	hip_adduction_r	hip_rotation_r	knee_angle_r	ankle_angle_r	subtalar_angle_r	mtp_angle_r	hip_flexion_l	hip_adduction_l	hip_rotation_l	knee_angle_l	ankle_angle_l	subtalar_angle_l	mtp_angle_l	lumbar_extension	lumbar_bending	lumbar_rotation	neck_flexion	neck_lateral_bending	neck_rotation	arm_flex_r	arm_add_r	arm_rot_r	elbow_flex_r	pro_sup_r	wrist_flex_r	wrist_dev_r	hand_finger_flex_r	arm_flex_l	arm_add_l	arm_rot_l	elbow_flex_l	pro_sup_l	wrist_flex_l	wrist_dev_l	hand_finger_flex_l
      1.19500000	      3.07029810	      2.04656078	     93.43507100	     -0.00799830	      0.57577684	      0.39575261	     71.88561934	    -15.58886930	     -2.97329497	   -117.23004313	     27.19374834	     16.42923044	     16.82642703	     76.76271671	    -10.09104685	      7.89367739	   -115.92067435	     29.99730646	      7.41893923	      1.73178122	    -58.64007871	     -2.27315068	      2.83981294	     17.90863047	      3.31051934	      3.10557960	    366.29378443	    -48.76991629	    330.33355609	     96.24327668	     95.68533594	    -53.31453728	    -24.99999983	     48.14426170	     10.34751041	    -37.65115692	    -11.47717369	    108.73948223	     92.46414745	    -52.93257271	     -7.92019862	     90.00021046
      1.19750000	      3.14857889	      2.13203616	     93.47527696	     -0.00835382	      0.57258332	      0.39506571	     71.89133219	    -15.73108989	     -3.08135995	   -117.65741796	     27.87862545	     16.49128172	     16.82700386	     76.93590842	    -10.14342247	      7.85595582	   -116.42240506	     30.49874798	      7.13892310	      1.54800586	    -59.11745273	     -2.12821892	      2.87566076	     18.20335779	      3.22093400	      3.10018934	    368.26365120	    -49.53834055	    331.55867369	     96.14962098	     95.99562289	    -53.15129004	    -24.99999983	     48.28479726	     11.89724101	    -38.46211975	    -10.78606490	    108.74168322	     93.51238017	    -52.58022529	     -7.51396327	     90.00021046
      1.20000000	      3.21012683	      2.19693732	     93.51867643	     -0.00872798	      0.56947385	      0.39443683	     71.95757974	    -15.89771670	     -3.17866570	   -118.10320476	     28.33846380	     16.57633159	     16.67333320	     77.12571474	    -10.15254412	      7.81382821	   -116.88891071	     30.88390009	      6.87717853	      1.09015345	    -59.59502342	     -1.97343712	      2.73214396	     18.62396840	      3.08184858	      3.40710787	    370.65605683	    -50.21203424	    333.22330603	     95.96891616	     96.46313556	    -53.18681961	    -24.99999983	     48.47333775	     13.20060378	    -39.25047709	    -10.46340915	    108.89181507	     94.94526503	    -52.23652262	     -6.55371966	     90.00021046
      1.20250000	      3.25187923	      2.05404010	     93.53703263	     -0.00890915	      0.56588459	      0.39385420	     72.26520569	    -15.97183369	     -3.20705476	   -118.53631365	     28.98481866	     16.47580348	     16.70604951	     77.56990310	    -10.18495046	      7.73408901	   -117.38971678	     31.39593569	      6.61532200	      1.07266717	    -59.84709445	     -1.91478041	      2.86640742	     19.06754024	      3.01780624	      3.22976775	    372.25110321	    -50.85256762	    334.06816819	     96.03561295	     96.58096753	    -52.88009875	    -24.99999983	     48.47620718	     14.85653243	    -40.10156766	     -9.50754332	    108.90203211	     95.22606229	    -51.88559473	     -6.47788634	     90.00021046
      1.20500000	      3.26736592	      2.06360501	     93.54264500	     -0.00911168	      0.56258986	      0.39322637	     72.44461190	    -16.06382058	     -3.23493562	   -119.03596374	     29.56431735	     16.36338987	     16.69481544	     77.80929929	    -10.17595444	      7.67338860	   -117.88024654	     31.76344317	      6.24478463	      0.98211418	    -60.17878030	     -1.87839230	      2.96746548	     19.13968203	      2.96352728	      3.10728414	    374.04295426	    -51.54589824	    335.21819093	     95.87533867	     96.87950964	    -52.59678433	    -24.99999983	     48.45099403	     16.59560915	    -40.88304539	     -8.50964929	    108.78832599	     95.73471586	    -51.53045222	     -6.32085733	     90.00021046
      1.20750000	      3.27832923	      2.01712753	     93.57001330	     -0.00935077	      0.55934138	      0.39269693	     72.68368488	    -16.15581285	     -3.25065591	   -119.49023052	     30.04249564	     16.22714012	     16.65488553	     78.13102877	    -10.15430109	      7.57999404	   -118.35556543	     32.09584939	      5.88316382	      0.87928533	    -60.48057199	     -1.81906624	      3.03017864	     19.33527923	      2.91021805	      3.03916727	    375.89123189	    -52.16201573	    336.39401110	     95.75481917	     97.23692135	    -52.38268447	    -24.99999983	     48.38357360	     18.29478351	    -41.66147426	     -7.55147476	    108.70435352	     96.21316862	    -51.22088737	     -6.11616564	     90.00021046
      1.21000000	      3.28011004	      1.93131857	     93.59704787	     -0.00957262	      0.55608799	      0.39221542	     72.98896608	    -16.23298691	     -3.24875222	   -119.94463750	     30.46084917	     16.04503067	     16.59627197	     78.49472671	    -10.11783030	      7.48320804	   -118.81871708	     32.38332013	      5.52750036	      0.77362128	    -60.73980578	     -1.77043422	      3.07396561	     19.51720806	      2.86780394	      2.97685904	    377.76022728	    -52.75891254	    337.62140644	     95.60624389	     97.61085066	    -52.18639883	    -24.99999983	     48.29357598	     20.00136892	    -42.43507735	     -6.55906212	    108.62585709	     96.59512996	    -50.94745752	     -5.88912191	     90.00021046
      1.21250000	      3.19958204	      1.84826718	     93.59952998	     -0.00996457	      0.55290913	      0.39180888	     73.36800651	    -16.33081057	     -3.12318232	   -120.42476444	     30.72644894	     15.78342753	     16.12231092	     78.82535464	    -10.01818524	      7.27664079	   -119.25930538	     32.62062621	      5.05533734	      0.21594425	    -60.99876030	     -1.72882022	      2.67962061	     19.62628151	      2.82021968	      3.46513495	    380.64609454	    -53.30216345	    340.09191210	     95.08540506	     98.57461721	    -52.62603465	    -24.99999983	     48.02894890	     21.04091646	    -43.29790640	     -6.28762942	    108.86550556	     97.23461242	    -51.23970164	     -5.06105121	     90.00021046
      1.21500000	      3.22577178	      1.70467491	     93.64441298	     -0.00994970	      0.54955531	      0.39131229	     73.76475496	    -16.37660867	     -3.15358389	   -120.92643353	     31.15165891	     15.59278987	     16.08379003	     79.29856380	     -9.97740203	      7.27200345	   -119.73304971	     32.86792641	      4.82690771	      0.16428235	    -61.16789764	     -1.69911734	      2.78019309	     19.79179746	      2.84434452	      3.18898449	    382.34087805	    -53.77781348	    341.15795954	     94.97448964	     98.65330714	    -52.18541155	    -24.99999983	     48.05543529	     22.83927491	    -44.09306727	     -5.13655911	    108.73691876	     97.30765923	    -50.86236242	     -5.01882019	     90.00021046
      1.21750000	      3.21489015	      1.59400986	     93.66862523	     -0.01004534	      0.54631598	      0.39087910	     74.18662713	    -16.41017520	     -3.12917660	   -121.44304014	     31.36602927	     15.27603842	     15.99222297	     79.72398316	     -9.89684604	      7.22006496	   -120.19688020	     33.01880962	      4.49700557	      0.08901301	    -61.33534873	     -1.68534209	      2.87274663	     19.78375935	      2.83256517	      3.06456116	    384.12140990	    -54.29905050	    342.38413347	     94.73608746	     98.94368813	    -51.90351416	    -24.99999983	     48.01420170	     24.70833262	    -44.81007273	     -3.88763218	    108.53407481	     97.28161442	    -50.60971494	     -4.94884804	     90.00021046
      1.22000000	      3.18765977	      1.46935594	     93.69241111	     -0.01009758	      0.54310278	      0.39044995	     74.65274062	    -16.44131563	     -3.07738209	   -121.97522413	     31.52906979	     14.91460453	     15.87334885	     80.17003287	     -9.80883996	      7.16767181	   -120.65360392	     33.12297399	      4.16999456	      0.00570698	    -61.48234888	     -1.69237235	      2.92915060	     19.77915670	      2.85982621	      2.93178489	    385.95019099	    -54.78437077	    343.69438897	     94.44851131	     99.32165132	    -51.73782303	    -24.99999983	     47.94043706	     26.56301182	    -45.52976266	     -2.60973773	    108.33454018	     97.15300819	    -50.48982728	     -4.89968954	     90.00021046
      1.22250000	      3.14365098	      1.34105503	     93.70277315	     -0.01018125	      0.53992529	      0.39004303	     75.15692757	    -16.46476190	     -2.99618894	   -122.52184426	     31.62866179	     14.52193861	     15.71557850	     80.62116444	     -9.69992932	      7.11181087	   -121.09614277	     33.19164343	      3.86432023	     -0.08713767	    -61.60754290	     -1.71986303	      2.95669602	     19.73171719	      2.91135708	      2.82591720	    387.84044894	    -55.26354505	    345.12783386	     94.09020067	     99.74398168	    -51.65435172	    -24.99999983	     47.86701272	     28.40767793	    -46.23291451	     -1.29640766	    108.12926363	     96.89479324	    -50.51529437	     -4.89408188	     90.00021046
      1.22500000	      3.07396062	      1.19738553	     93.71433808	     -0.01033654	      0.53683389	      0.38964427	     75.68700378	    -16.47708808	     -2.86014231	   -123.03779279	     31.70595610	     14.07701605	     15.45113514	     81.08557936	     -9.61686800	      6.97722230	   -121.56174302	     33.27395091	      3.56651354	     -0.21423952	    -61.72022454	     -1.73887782	      2.90547274	     19.66246179	      3.01244397	      2.82095849	    389.91545878	    -55.73557634	    346.83538044	     93.65357766	    100.24108352	    -51.78160933	    -24.99999983	     47.82817542	     30.16901532	    -46.89002412	     -0.03576143	    107.88943073	     96.37270569	    -50.87857877	     -5.01418514	     90.00021046
